# xmcd
#
# Track frame offsets:
#	150
#	14676
#	33190
#	43824
#
# Disc length: 772 seconds
#
# Revision: 0
# Processed by: cddbd v1.5.2PL0 Copyright (c) Steve Scherf et al.
# Submitted via: audiograbber 1.83.01
#
DISCID=2c030204
DTITLE=Phyllis Leonard - Looking Back At Life (single)
DYEAR=1999
DGENRE=Country
TTITLE0=Last Call
TTITLE1=Looking Back At Life
TTITLE2=Heart´s One Size Too Small
TTITLE3=Borrowed Love
EXTD=
EXTT0=
EXTT1=
EXTT2=
EXTT3=
PLAYORDER=
